<mxfile host="app.diagrams.net" modified="2021-07-23T01:35:19.849Z" agent="5.0 (Windows NT 10.0; Win64; x64) AppleWebKit/537.36 (KHTML, like Gecko) Chrome/91.0.4472.164 Safari/537.36" etag="5qGV2TrlVXia2f7ztRkN" version="14.9.2" type="github">
  <diagram id="92hxd-9qKMeHBpw-x2ww" name="Page-1">
    <mxGraphModel dx="4897" dy="2688" grid="1" gridSize="10" guides="1" tooltips="1" connect="1" arrows="1" fold="1" page="1" pageScale="1" pageWidth="850" pageHeight="1100" math="0" shadow="0">
      <root>
        <mxCell id="0" />
        <mxCell id="1" parent="0" />
        <mxCell id="LrA5sY278lgj9yP4FrpZ-35" style="edgeStyle=orthogonalEdgeStyle;rounded=0;orthogonalLoop=1;jettySize=auto;html=1;entryX=1;entryY=0.5;entryDx=0;entryDy=0;exitX=0;exitY=1;exitDx=0;exitDy=0;exitPerimeter=0;" edge="1" parent="1" source="LrA5sY278lgj9yP4FrpZ-1" target="LrA5sY278lgj9yP4FrpZ-24">
          <mxGeometry relative="1" as="geometry">
            <mxPoint x="430" y="-430" as="sourcePoint" />
            <mxPoint x="381" y="-113" as="targetPoint" />
            <Array as="points">
              <mxPoint x="510" y="-358" />
              <mxPoint x="510" y="-65" />
            </Array>
          </mxGeometry>
        </mxCell>
        <mxCell id="LrA5sY278lgj9yP4FrpZ-36" style="edgeStyle=orthogonalEdgeStyle;rounded=0;orthogonalLoop=1;jettySize=auto;html=1;exitX=1;exitY=1;exitDx=0;exitDy=0;exitPerimeter=0;" edge="1" parent="1" source="LrA5sY278lgj9yP4FrpZ-1">
          <mxGeometry relative="1" as="geometry">
            <mxPoint x="691" y="14" as="targetPoint" />
            <Array as="points">
              <mxPoint x="570" y="-110" />
              <mxPoint x="691" y="-110" />
            </Array>
          </mxGeometry>
        </mxCell>
        <mxCell id="LrA5sY278lgj9yP4FrpZ-115" style="edgeStyle=orthogonalEdgeStyle;rounded=0;orthogonalLoop=1;jettySize=auto;html=1;exitX=0.75;exitY=0.1;exitDx=0;exitDy=0;exitPerimeter=0;entryX=0.5;entryY=0;entryDx=0;entryDy=0;" edge="1" parent="1" source="LrA5sY278lgj9yP4FrpZ-1" target="LrA5sY278lgj9yP4FrpZ-107">
          <mxGeometry relative="1" as="geometry" />
        </mxCell>
        <mxCell id="LrA5sY278lgj9yP4FrpZ-117" style="edgeStyle=orthogonalEdgeStyle;rounded=0;orthogonalLoop=1;jettySize=auto;html=1;exitX=0.25;exitY=0.1;exitDx=0;exitDy=0;exitPerimeter=0;entryX=0.58;entryY=-0.012;entryDx=0;entryDy=0;entryPerimeter=0;" edge="1" parent="1" source="LrA5sY278lgj9yP4FrpZ-1" target="LrA5sY278lgj9yP4FrpZ-65">
          <mxGeometry relative="1" as="geometry">
            <Array as="points">
              <mxPoint x="987" y="-430" />
            </Array>
          </mxGeometry>
        </mxCell>
        <mxCell id="LrA5sY278lgj9yP4FrpZ-1" value="Actor" style="shape=umlActor;verticalLabelPosition=bottom;verticalAlign=top;html=1;outlineConnect=0;" vertex="1" parent="1">
          <mxGeometry x="530" y="-438" width="40" height="80" as="geometry" />
        </mxCell>
        <mxCell id="LrA5sY278lgj9yP4FrpZ-2" value="User" style="text;strokeColor=none;fillColor=none;html=1;fontSize=24;fontStyle=1;verticalAlign=middle;align=center;" vertex="1" parent="1">
          <mxGeometry x="500" y="-500" width="100" height="40" as="geometry" />
        </mxCell>
        <mxCell id="LrA5sY278lgj9yP4FrpZ-17" value="Device Usage (1+ entries per user)" style="shape=table;startSize=20;container=1;collapsible=0;childLayout=tableLayout;fixedRows=0;rowLines=0;fontStyle=1;align=center;fontSize=15;" vertex="1" parent="1">
          <mxGeometry x="120" y="-110" width="360" height="100" as="geometry" />
        </mxCell>
        <mxCell id="LrA5sY278lgj9yP4FrpZ-24" value="" style="shape=partialRectangle;html=1;whiteSpace=wrap;collapsible=0;dropTarget=0;pointerEvents=0;fillColor=none;top=0;left=0;bottom=0;right=0;points=[[0,0.5],[1,0.5]];portConstraint=eastwest;" vertex="1" parent="LrA5sY278lgj9yP4FrpZ-17">
          <mxGeometry y="20" width="360" height="80" as="geometry" />
        </mxCell>
        <mxCell id="LrA5sY278lgj9yP4FrpZ-25" value="&lt;font style=&quot;font-size: 21px&quot;&gt;Device id #&lt;/font&gt;" style="shape=partialRectangle;html=1;whiteSpace=wrap;connectable=0;fillColor=none;top=0;left=0;bottom=0;right=0;overflow=hidden;" vertex="1" parent="LrA5sY278lgj9yP4FrpZ-24">
          <mxGeometry width="121" height="80" as="geometry" />
        </mxCell>
        <mxCell id="LrA5sY278lgj9yP4FrpZ-26" value="&lt;font style=&quot;font-size: 18px&quot;&gt;avg hours used per day&lt;/font&gt;" style="shape=partialRectangle;html=1;whiteSpace=wrap;connectable=0;fillColor=none;top=0;left=0;bottom=0;right=0;align=left;spacingLeft=6;overflow=hidden;" vertex="1" parent="LrA5sY278lgj9yP4FrpZ-24">
          <mxGeometry x="121" width="119" height="80" as="geometry" />
        </mxCell>
        <mxCell id="LrA5sY278lgj9yP4FrpZ-97" value="&lt;font style=&quot;font-size: 19px&quot;&gt;Device W or kW rating&lt;/font&gt;" style="shape=partialRectangle;html=1;whiteSpace=wrap;connectable=0;fillColor=none;top=0;left=0;bottom=0;right=0;align=left;spacingLeft=6;overflow=hidden;" vertex="1" parent="LrA5sY278lgj9yP4FrpZ-24">
          <mxGeometry x="240" width="120" height="80" as="geometry" />
        </mxCell>
        <mxCell id="LrA5sY278lgj9yP4FrpZ-37" value="Energy bill (1 entry per user)" style="shape=table;startSize=30;container=0;collapsible=0;childLayout=tableLayout;fontStyle=1;align=center;fontSize=17;" vertex="1" parent="1">
          <mxGeometry x="550" y="20" width="360" height="130" as="geometry" />
        </mxCell>
        <mxCell id="LrA5sY278lgj9yP4FrpZ-38" value="" style="shape=partialRectangle;html=1;whiteSpace=wrap;collapsible=0;dropTarget=0;pointerEvents=0;fillColor=none;top=0;left=0;bottom=0;right=0;points=[[0,0.5],[1,0.5]];portConstraint=eastwest;" vertex="1" parent="LrA5sY278lgj9yP4FrpZ-37">
          <mxGeometry y="30" width="360" height="100" as="geometry" />
        </mxCell>
        <mxCell id="LrA5sY278lgj9yP4FrpZ-76" value="&lt;span style=&quot;font-size: 19px;&quot;&gt;user id&lt;/span&gt;" style="shape=partialRectangle;html=1;whiteSpace=wrap;connectable=0;fillColor=none;top=0;left=0;bottom=0;right=0;overflow=hidden;fontSize=19;" vertex="1" parent="LrA5sY278lgj9yP4FrpZ-38">
          <mxGeometry width="90" height="100" as="geometry" />
        </mxCell>
        <mxCell id="LrA5sY278lgj9yP4FrpZ-39" value="total energy used" style="shape=partialRectangle;html=1;whiteSpace=wrap;connectable=0;fillColor=none;top=0;left=0;bottom=0;right=0;overflow=hidden;fontSize=17;" vertex="1" parent="LrA5sY278lgj9yP4FrpZ-38">
          <mxGeometry x="90" width="90" height="100" as="geometry" />
        </mxCell>
        <mxCell id="LrA5sY278lgj9yP4FrpZ-41" value="total money spent" style="shape=partialRectangle;html=1;whiteSpace=wrap;connectable=0;fillColor=none;top=0;left=0;bottom=0;right=0;overflow=hidden;fontSize=18;" vertex="1" parent="LrA5sY278lgj9yP4FrpZ-38">
          <mxGeometry x="180" width="90" height="100" as="geometry" />
        </mxCell>
        <mxCell id="LrA5sY278lgj9yP4FrpZ-86" value="&lt;font style=&quot;font-size: 15px&quot;&gt;billing period (# of days bill charges for)&lt;/font&gt;" style="shape=partialRectangle;html=1;whiteSpace=wrap;connectable=0;fillColor=none;top=0;left=0;bottom=0;right=0;overflow=hidden;fontSize=14;" vertex="1" parent="LrA5sY278lgj9yP4FrpZ-38">
          <mxGeometry x="270" width="90" height="100" as="geometry" />
        </mxCell>
        <mxCell id="LrA5sY278lgj9yP4FrpZ-150" style="edgeStyle=orthogonalEdgeStyle;rounded=0;orthogonalLoop=1;jettySize=auto;html=1;exitX=1.001;exitY=0.307;exitDx=0;exitDy=0;fontSize=17;exitPerimeter=0;" edge="1" parent="1" source="LrA5sY278lgj9yP4FrpZ-66" target="LrA5sY278lgj9yP4FrpZ-151">
          <mxGeometry relative="1" as="geometry">
            <mxPoint x="1310" y="-390" as="targetPoint" />
            <Array as="points">
              <mxPoint x="1240" y="-188" />
              <mxPoint x="1240" y="-275" />
              <mxPoint x="1112" y="-275" />
            </Array>
          </mxGeometry>
        </mxCell>
        <mxCell id="LrA5sY278lgj9yP4FrpZ-65" value="User (all this info will be encrypted)" style="shape=table;startSize=30;container=0;collapsible=0;childLayout=tableLayout;fontStyle=1;align=center;fontSize=17;" vertex="1" parent="1">
          <mxGeometry x="680" y="-240" width="530" height="100" as="geometry" />
        </mxCell>
        <mxCell id="LrA5sY278lgj9yP4FrpZ-66" value="" style="shape=partialRectangle;html=1;whiteSpace=wrap;collapsible=0;dropTarget=0;pointerEvents=0;fillColor=none;top=0;left=0;bottom=0;right=0;points=[[0,0.5],[1,0.5]];portConstraint=eastwest;" vertex="1" parent="LrA5sY278lgj9yP4FrpZ-65">
          <mxGeometry y="30" width="530" height="70" as="geometry" />
        </mxCell>
        <mxCell id="LrA5sY278lgj9yP4FrpZ-67" value="&lt;font style=&quot;font-size: 16px&quot;&gt;username&lt;/font&gt;" style="shape=partialRectangle;html=1;whiteSpace=wrap;connectable=0;fillColor=none;top=0;left=0;bottom=0;right=0;overflow=hidden;" vertex="1" parent="LrA5sY278lgj9yP4FrpZ-66">
          <mxGeometry width="80" height="70" as="geometry" />
        </mxCell>
        <mxCell id="LrA5sY278lgj9yP4FrpZ-68" value="&lt;span style=&quot;text-align: left&quot;&gt;&lt;font style=&quot;font-size: 18px&quot;&gt;password&lt;/font&gt;&lt;br&gt;&lt;/span&gt;" style="shape=partialRectangle;html=1;whiteSpace=wrap;connectable=0;fillColor=none;top=0;left=0;bottom=0;right=0;overflow=hidden;" vertex="1" parent="LrA5sY278lgj9yP4FrpZ-66">
          <mxGeometry x="80" width="100" height="70" as="geometry" />
        </mxCell>
        <mxCell id="LrA5sY278lgj9yP4FrpZ-69" value="&lt;font style=&quot;font-size: 21px&quot;&gt;Name&lt;/font&gt;" style="shape=partialRectangle;html=1;whiteSpace=wrap;connectable=0;fillColor=none;top=0;left=0;bottom=0;right=0;overflow=hidden;" vertex="1" parent="LrA5sY278lgj9yP4FrpZ-66">
          <mxGeometry x="180" width="80" height="70" as="geometry" />
        </mxCell>
        <mxCell id="LrA5sY278lgj9yP4FrpZ-70" value="&lt;font style=&quot;font-size: 19px&quot;&gt;Email&lt;/font&gt;" style="shape=partialRectangle;html=1;whiteSpace=wrap;connectable=0;fillColor=none;top=0;left=0;bottom=0;right=0;overflow=hidden;" vertex="1" parent="LrA5sY278lgj9yP4FrpZ-66">
          <mxGeometry x="260" width="90" height="70" as="geometry" />
        </mxCell>
        <mxCell id="LrA5sY278lgj9yP4FrpZ-71" value="&lt;font style=&quot;font-size: 20px&quot;&gt;ID #&lt;/font&gt;" style="shape=partialRectangle;html=1;whiteSpace=wrap;connectable=0;fillColor=none;top=0;left=0;bottom=0;right=0;overflow=hidden;" vertex="1" parent="LrA5sY278lgj9yP4FrpZ-66">
          <mxGeometry x="350" width="90" height="70" as="geometry" />
        </mxCell>
        <mxCell id="LrA5sY278lgj9yP4FrpZ-149" value="&lt;font style=&quot;font-size: 16px&quot;&gt;user devices db reference&lt;/font&gt;" style="shape=partialRectangle;html=1;whiteSpace=wrap;connectable=0;fillColor=none;top=0;left=0;bottom=0;right=0;overflow=hidden;" vertex="1" parent="LrA5sY278lgj9yP4FrpZ-66">
          <mxGeometry x="440" width="90" height="70" as="geometry" />
        </mxCell>
        <mxCell id="LrA5sY278lgj9yP4FrpZ-72" style="edgeStyle=orthogonalEdgeStyle;rounded=0;orthogonalLoop=1;jettySize=auto;html=1;entryX=0.75;entryY=0;entryDx=0;entryDy=0;exitX=0.453;exitY=1;exitDx=0;exitDy=0;exitPerimeter=0;" edge="1" parent="1" source="LrA5sY278lgj9yP4FrpZ-66" target="LrA5sY278lgj9yP4FrpZ-37">
          <mxGeometry relative="1" as="geometry">
            <mxPoint x="490" y="-175" as="sourcePoint" />
            <mxPoint x="510" y="287" as="targetPoint" />
            <Array as="points">
              <mxPoint x="920" y="-60" />
              <mxPoint x="820" y="-60" />
            </Array>
          </mxGeometry>
        </mxCell>
        <mxCell id="LrA5sY278lgj9yP4FrpZ-89" style="edgeStyle=orthogonalEdgeStyle;rounded=0;orthogonalLoop=1;jettySize=auto;html=1;exitX=1;exitY=0.5;exitDx=0;exitDy=0;entryX=0;entryY=0.5;entryDx=0;entryDy=0;" edge="1" parent="1" source="LrA5sY278lgj9yP4FrpZ-88" target="LrA5sY278lgj9yP4FrpZ-100">
          <mxGeometry relative="1" as="geometry">
            <mxPoint x="380" y="540" as="targetPoint" />
            <Array as="points">
              <mxPoint x="400" y="560" />
            </Array>
          </mxGeometry>
        </mxCell>
        <mxCell id="LrA5sY278lgj9yP4FrpZ-122" style="edgeStyle=orthogonalEdgeStyle;rounded=0;orthogonalLoop=1;jettySize=auto;html=1;entryX=0.739;entryY=0.073;entryDx=0;entryDy=0;entryPerimeter=0;exitX=0;exitY=0.5;exitDx=0;exitDy=0;" edge="1" parent="1" source="LrA5sY278lgj9yP4FrpZ-38" target="LrA5sY278lgj9yP4FrpZ-88">
          <mxGeometry relative="1" as="geometry">
            <mxPoint x="460" y="350" as="sourcePoint" />
            <Array as="points">
              <mxPoint x="500" y="90" />
              <mxPoint x="500" y="150" />
              <mxPoint x="369" y="150" />
            </Array>
          </mxGeometry>
        </mxCell>
        <mxCell id="LrA5sY278lgj9yP4FrpZ-138" style="edgeStyle=orthogonalEdgeStyle;rounded=0;orthogonalLoop=1;jettySize=auto;html=1;exitX=0.5;exitY=1;exitDx=0;exitDy=0;entryX=0.5;entryY=0;entryDx=0;entryDy=0;fontSize=20;" edge="1" parent="1" source="LrA5sY278lgj9yP4FrpZ-88" target="LrA5sY278lgj9yP4FrpZ-103">
          <mxGeometry relative="1" as="geometry">
            <Array as="points">
              <mxPoint x="340" y="550" />
              <mxPoint x="150" y="550" />
            </Array>
          </mxGeometry>
        </mxCell>
        <mxCell id="LrA5sY278lgj9yP4FrpZ-88" value="IBM Watson" style="ellipse;whiteSpace=wrap;html=1;fontSize=19;" vertex="1" parent="1">
          <mxGeometry x="280" y="160" width="120" height="80" as="geometry" />
        </mxCell>
        <mxCell id="LrA5sY278lgj9yP4FrpZ-91" value="money user spends on each device (including substitutes) " style="shape=table;startSize=30;container=0;collapsible=0;childLayout=tableLayout;fontStyle=1;align=center;fontSize=17;" vertex="1" parent="1">
          <mxGeometry x="710" y="610" width="490" height="170" as="geometry" />
        </mxCell>
        <mxCell id="LrA5sY278lgj9yP4FrpZ-92" value="" style="shape=partialRectangle;html=1;whiteSpace=wrap;collapsible=0;dropTarget=0;pointerEvents=0;fillColor=none;top=0;left=0;bottom=0;right=0;points=[[0,0.5],[1,0.5]];portConstraint=eastwest;fontSize=15;" vertex="1" parent="LrA5sY278lgj9yP4FrpZ-91">
          <mxGeometry y="30" width="490" height="140" as="geometry" />
        </mxCell>
        <mxCell id="LrA5sY278lgj9yP4FrpZ-93" value="&lt;font style=&quot;font-size: 26px&quot;&gt;device id&lt;/font&gt;" style="shape=partialRectangle;html=1;whiteSpace=wrap;connectable=0;fillColor=none;top=0;left=0;bottom=0;right=0;overflow=hidden;fontSize=18;" vertex="1" parent="LrA5sY278lgj9yP4FrpZ-92">
          <mxGeometry width="164" height="140" as="geometry" />
        </mxCell>
        <mxCell id="LrA5sY278lgj9yP4FrpZ-94" value="&lt;font style=&quot;font-size: 18px&quot;&gt;total energy used by device * $ per W or kW = money user would spend on device&lt;/font&gt;" style="shape=partialRectangle;html=1;whiteSpace=wrap;connectable=0;fillColor=none;top=0;left=0;bottom=0;right=0;overflow=hidden;fontSize=16;" vertex="1" parent="LrA5sY278lgj9yP4FrpZ-92">
          <mxGeometry x="164" width="162" height="140" as="geometry" />
        </mxCell>
        <mxCell id="LrA5sY278lgj9yP4FrpZ-148" value="substitute id ( = 0 if no substitute or 1 if device is substitute, otherwise holds device id of subtitute)&amp;nbsp;" style="shape=partialRectangle;html=1;whiteSpace=wrap;connectable=0;fillColor=none;top=0;left=0;bottom=0;right=0;overflow=hidden;fontSize=17;" vertex="1" parent="LrA5sY278lgj9yP4FrpZ-92">
          <mxGeometry x="326" width="164" height="140" as="geometry" />
        </mxCell>
        <mxCell id="LrA5sY278lgj9yP4FrpZ-101" style="edgeStyle=orthogonalEdgeStyle;rounded=0;orthogonalLoop=1;jettySize=auto;html=1;exitX=1;exitY=0.5;exitDx=0;exitDy=0;entryX=0;entryY=0.5;entryDx=0;entryDy=0;" edge="1" parent="1" source="LrA5sY278lgj9yP4FrpZ-100" target="LrA5sY278lgj9yP4FrpZ-92">
          <mxGeometry relative="1" as="geometry" />
        </mxCell>
        <mxCell id="LrA5sY278lgj9yP4FrpZ-100" value="&lt;span style=&quot;text-align: left ; font-size: 21px&quot;&gt;total energy used by device = device W or kW rating * hours used per day * billing period&lt;/span&gt;&lt;span style=&quot;text-align: left&quot;&gt;&lt;br&gt;&lt;/span&gt;" style="whiteSpace=wrap;html=1;" vertex="1" parent="1">
          <mxGeometry x="425" y="490" width="180" height="140" as="geometry" />
        </mxCell>
        <mxCell id="LrA5sY278lgj9yP4FrpZ-103" value="list of solar substitutes" style="shape=table;startSize=30;container=0;collapsible=0;childLayout=tableLayout;fontStyle=1;align=center;fontSize=17;" vertex="1" parent="1">
          <mxGeometry x="50" y="610" width="200" height="90" as="geometry" />
        </mxCell>
        <mxCell id="LrA5sY278lgj9yP4FrpZ-104" value="" style="shape=partialRectangle;html=1;whiteSpace=wrap;collapsible=0;dropTarget=0;pointerEvents=0;fillColor=none;top=0;left=0;bottom=0;right=0;points=[[0,0.5],[1,0.5]];portConstraint=eastwest;" vertex="1" parent="LrA5sY278lgj9yP4FrpZ-103">
          <mxGeometry y="30" width="200" height="60" as="geometry" />
        </mxCell>
        <mxCell id="LrA5sY278lgj9yP4FrpZ-105" value="Devices" style="shape=partialRectangle;html=1;whiteSpace=wrap;connectable=0;fillColor=none;top=0;left=0;bottom=0;right=0;overflow=hidden;fontSize=19;" vertex="1" parent="LrA5sY278lgj9yP4FrpZ-104">
          <mxGeometry width="200" height="60" as="geometry" />
        </mxCell>
        <mxCell id="LrA5sY278lgj9yP4FrpZ-107" value="Device" style="shape=table;startSize=30;container=0;collapsible=0;childLayout=tableLayout;fontStyle=1;align=center;fontSize=17;" vertex="1" parent="1">
          <mxGeometry x="-330" y="-260" width="450" height="110" as="geometry" />
        </mxCell>
        <mxCell id="LrA5sY278lgj9yP4FrpZ-108" value="" style="shape=partialRectangle;html=1;whiteSpace=wrap;collapsible=0;dropTarget=0;pointerEvents=0;fillColor=none;top=0;left=0;bottom=0;right=0;points=[[0,0.5],[1,0.5]];portConstraint=eastwest;" vertex="1" parent="LrA5sY278lgj9yP4FrpZ-107">
          <mxGeometry y="30" width="450" height="80" as="geometry" />
        </mxCell>
        <mxCell id="LrA5sY278lgj9yP4FrpZ-109" value="&lt;span&gt;&lt;font style=&quot;font-size: 16px&quot;&gt;device id&lt;/font&gt;&lt;/span&gt;" style="shape=partialRectangle;html=1;whiteSpace=wrap;connectable=0;fillColor=none;top=0;left=0;bottom=0;right=0;overflow=hidden;" vertex="1" parent="LrA5sY278lgj9yP4FrpZ-108">
          <mxGeometry width="90" height="80" as="geometry" />
        </mxCell>
        <mxCell id="LrA5sY278lgj9yP4FrpZ-110" value="&lt;font style=&quot;font-size: 16px&quot;&gt;kW rating&lt;/font&gt;" style="shape=partialRectangle;html=1;whiteSpace=wrap;connectable=0;fillColor=none;top=0;left=0;bottom=0;right=0;overflow=hidden;" vertex="1" parent="LrA5sY278lgj9yP4FrpZ-108">
          <mxGeometry x="90" width="90" height="80" as="geometry" />
        </mxCell>
        <mxCell id="LrA5sY278lgj9yP4FrpZ-111" value="&lt;font style=&quot;font-size: 15px&quot;&gt;manufacturer&lt;/font&gt;" style="shape=partialRectangle;html=1;whiteSpace=wrap;connectable=0;fillColor=none;top=0;left=0;bottom=0;right=0;overflow=hidden;" vertex="1" parent="LrA5sY278lgj9yP4FrpZ-108">
          <mxGeometry x="180" width="90" height="80" as="geometry" />
        </mxCell>
        <mxCell id="LrA5sY278lgj9yP4FrpZ-112" value="&lt;font style=&quot;font-size: 18px&quot;&gt;Name&lt;/font&gt;" style="shape=partialRectangle;html=1;whiteSpace=wrap;connectable=0;fillColor=none;top=0;left=0;bottom=0;right=0;overflow=hidden;" vertex="1" parent="LrA5sY278lgj9yP4FrpZ-108">
          <mxGeometry x="270" width="90" height="80" as="geometry" />
        </mxCell>
        <mxCell id="LrA5sY278lgj9yP4FrpZ-113" value="&lt;font style=&quot;font-size: 15px&quot;&gt;serial #/ barcode&lt;/font&gt;" style="shape=partialRectangle;html=1;whiteSpace=wrap;connectable=0;fillColor=none;top=0;left=0;bottom=0;right=0;overflow=hidden;" vertex="1" parent="LrA5sY278lgj9yP4FrpZ-108">
          <mxGeometry x="360" width="90" height="80" as="geometry" />
        </mxCell>
        <mxCell id="LrA5sY278lgj9yP4FrpZ-114" style="edgeStyle=orthogonalEdgeStyle;rounded=0;orthogonalLoop=1;jettySize=auto;html=1;exitX=0.917;exitY=1.063;exitDx=0;exitDy=0;exitPerimeter=0;" edge="1" parent="1" source="LrA5sY278lgj9yP4FrpZ-108">
          <mxGeometry relative="1" as="geometry">
            <mxPoint x="120" y="-65" as="targetPoint" />
            <Array as="points">
              <mxPoint x="86" y="-65" />
            </Array>
          </mxGeometry>
        </mxCell>
        <mxCell id="LrA5sY278lgj9yP4FrpZ-123" style="edgeStyle=orthogonalEdgeStyle;rounded=0;orthogonalLoop=1;jettySize=auto;html=1;entryX=0.5;entryY=0;entryDx=0;entryDy=0;" edge="1" parent="1" target="LrA5sY278lgj9yP4FrpZ-88">
          <mxGeometry relative="1" as="geometry">
            <mxPoint x="350" y="-10" as="sourcePoint" />
            <Array as="points">
              <mxPoint x="340" y="-2" />
            </Array>
          </mxGeometry>
        </mxCell>
        <mxCell id="LrA5sY278lgj9yP4FrpZ-129" value="&lt;font style=&quot;font-size: 19px&quot;&gt;Watson queries device db for solar substitute list&amp;nbsp;&lt;/font&gt;" style="text;html=1;strokeColor=none;fillColor=none;align=center;verticalAlign=middle;whiteSpace=wrap;rounded=0;" vertex="1" parent="1">
          <mxGeometry x="-142.5" y="-160" width="120" height="170" as="geometry" />
        </mxCell>
        <mxCell id="LrA5sY278lgj9yP4FrpZ-133" value="User inputs device &lt;br&gt;(can lookup in device db or register their own)" style="text;html=1;align=center;verticalAlign=middle;resizable=0;points=[];autosize=1;strokeColor=none;fontSize=20;" vertex="1" parent="1">
          <mxGeometry x="90" y="-170" width="420" height="50" as="geometry" />
        </mxCell>
        <mxCell id="LrA5sY278lgj9yP4FrpZ-134" value="Users must make an account" style="text;html=1;align=center;verticalAlign=middle;resizable=0;points=[];autosize=1;strokeColor=none;fontSize=20;" vertex="1" parent="1">
          <mxGeometry x="680" y="-290" width="270" height="30" as="geometry" />
        </mxCell>
        <mxCell id="LrA5sY278lgj9yP4FrpZ-136" value="Interwebs" style="ellipse;whiteSpace=wrap;html=1;aspect=fixed;fontSize=20;" vertex="1" parent="1">
          <mxGeometry x="-320" y="150" width="100" height="100" as="geometry" />
        </mxCell>
        <mxCell id="LrA5sY278lgj9yP4FrpZ-139" value="" style="endArrow=classic;startArrow=classic;html=1;fontSize=20;exitX=1;exitY=0.5;exitDx=0;exitDy=0;entryX=0;entryY=0.5;entryDx=0;entryDy=0;" edge="1" parent="1" source="LrA5sY278lgj9yP4FrpZ-136" target="LrA5sY278lgj9yP4FrpZ-88">
          <mxGeometry width="50" height="50" relative="1" as="geometry">
            <mxPoint x="330" y="90" as="sourcePoint" />
            <mxPoint x="380" y="40" as="targetPoint" />
          </mxGeometry>
        </mxCell>
        <mxCell id="LrA5sY278lgj9yP4FrpZ-140" value="" style="endArrow=classic;startArrow=classic;html=1;fontSize=20;exitX=0.55;exitY=1.052;exitDx=0;exitDy=0;entryX=0;entryY=0;entryDx=0;entryDy=0;exitPerimeter=0;" edge="1" parent="1" source="LrA5sY278lgj9yP4FrpZ-108" target="LrA5sY278lgj9yP4FrpZ-88">
          <mxGeometry width="50" height="50" relative="1" as="geometry">
            <mxPoint x="-210" y="410" as="sourcePoint" />
            <mxPoint x="297.5735931287836" y="468.28427124747714" as="targetPoint" />
          </mxGeometry>
        </mxCell>
        <mxCell id="LrA5sY278lgj9yP4FrpZ-141" value="&lt;span style=&quot;font-size: 19px&quot;&gt;If device db query yields nothing (i.e. solar substitute isn&#39;t found in device db), Watson will have to research for a substitute on the internet. &lt;br&gt;&lt;br&gt;If a substitute is found that has enough info to fit the device db&#39;s entry structure, then it is sent back to watson, who will add it to the device db&amp;nbsp;&amp;nbsp;&lt;/span&gt;" style="text;html=1;strokeColor=none;fillColor=none;align=center;verticalAlign=middle;whiteSpace=wrap;rounded=0;" vertex="1" parent="1">
          <mxGeometry x="-170" y="115" width="350" height="170" as="geometry" />
        </mxCell>
        <mxCell id="LrA5sY278lgj9yP4FrpZ-145" style="edgeStyle=orthogonalEdgeStyle;rounded=0;orthogonalLoop=1;jettySize=auto;html=1;exitX=1;exitY=0.5;exitDx=0;exitDy=0;fontSize=20;entryX=0;entryY=0.75;entryDx=0;entryDy=0;" edge="1" parent="1" source="LrA5sY278lgj9yP4FrpZ-104" target="LrA5sY278lgj9yP4FrpZ-100">
          <mxGeometry relative="1" as="geometry">
            <mxPoint x="390" y="580" as="targetPoint" />
          </mxGeometry>
        </mxCell>
        <mxCell id="LrA5sY278lgj9yP4FrpZ-146" style="edgeStyle=orthogonalEdgeStyle;rounded=0;orthogonalLoop=1;jettySize=auto;html=1;exitX=1;exitY=0.5;exitDx=0;exitDy=0;fontSize=20;entryX=0.5;entryY=0;entryDx=0;entryDy=0;" edge="1" parent="1" source="LrA5sY278lgj9yP4FrpZ-38" target="LrA5sY278lgj9yP4FrpZ-147">
          <mxGeometry relative="1" as="geometry">
            <mxPoint x="850" y="310" as="targetPoint" />
          </mxGeometry>
        </mxCell>
        <mxCell id="LrA5sY278lgj9yP4FrpZ-169" style="edgeStyle=orthogonalEdgeStyle;rounded=0;orthogonalLoop=1;jettySize=auto;html=1;exitX=0.5;exitY=1;exitDx=0;exitDy=0;fontSize=17;entryX=0.5;entryY=0;entryDx=0;entryDy=0;" edge="1" parent="1" source="LrA5sY278lgj9yP4FrpZ-147" target="LrA5sY278lgj9yP4FrpZ-91">
          <mxGeometry relative="1" as="geometry">
            <Array as="points">
              <mxPoint x="850" y="510" />
              <mxPoint x="965" y="510" />
            </Array>
          </mxGeometry>
        </mxCell>
        <mxCell id="LrA5sY278lgj9yP4FrpZ-147" value="&lt;span style=&quot;text-align: left&quot;&gt;&lt;font style=&quot;font-size: 21px&quot;&gt;total money spent/ total energy used = $ per W or kW&lt;/font&gt;&lt;/span&gt;&lt;span style=&quot;text-align: left&quot;&gt;&lt;br&gt;&lt;/span&gt;" style="whiteSpace=wrap;html=1;" vertex="1" parent="1">
          <mxGeometry x="560" y="260" width="180" height="140" as="geometry" />
        </mxCell>
        <mxCell id="LrA5sY278lgj9yP4FrpZ-151" value="User devices" style="shape=table;startSize=30;container=1;collapsible=0;childLayout=tableLayout;fontStyle=1;align=center;fontSize=17;" vertex="1" parent="1">
          <mxGeometry x="1050" y="-425" width="124" height="115" as="geometry" />
        </mxCell>
        <mxCell id="LrA5sY278lgj9yP4FrpZ-152" value="" style="shape=partialRectangle;html=1;whiteSpace=wrap;collapsible=0;dropTarget=0;pointerEvents=0;fillColor=none;top=0;left=0;bottom=0;right=0;points=[[0,0.5],[1,0.5]];portConstraint=eastwest;" vertex="1" parent="LrA5sY278lgj9yP4FrpZ-151">
          <mxGeometry y="30" width="124" height="85" as="geometry" />
        </mxCell>
        <mxCell id="LrA5sY278lgj9yP4FrpZ-153" value="&lt;font style=&quot;font-size: 22px&quot;&gt;devices&lt;/font&gt;" style="shape=partialRectangle;html=1;whiteSpace=wrap;connectable=0;fillColor=none;top=0;left=0;bottom=0;right=0;overflow=hidden;" vertex="1" parent="LrA5sY278lgj9yP4FrpZ-152">
          <mxGeometry width="124" height="85" as="geometry" />
        </mxCell>
        <mxCell id="LrA5sY278lgj9yP4FrpZ-164" style="edgeStyle=orthogonalEdgeStyle;rounded=0;orthogonalLoop=1;jettySize=auto;html=1;exitX=0.834;exitY=1.021;exitDx=0;exitDy=0;fontSize=17;entryX=0;entryY=0.5;entryDx=0;entryDy=0;exitPerimeter=0;" edge="1" parent="1" source="LrA5sY278lgj9yP4FrpZ-24" target="LrA5sY278lgj9yP4FrpZ-152">
          <mxGeometry relative="1" as="geometry">
            <mxPoint x="460" y="-30" as="sourcePoint" />
            <Array as="points">
              <mxPoint x="434" y="-8" />
              <mxPoint x="434" y="40" />
              <mxPoint x="530" y="40" />
              <mxPoint x="530" y="-300" />
              <mxPoint x="1030" y="-300" />
              <mxPoint x="1030" y="-352" />
            </Array>
          </mxGeometry>
        </mxCell>
        <mxCell id="LrA5sY278lgj9yP4FrpZ-165" style="edgeStyle=orthogonalEdgeStyle;rounded=0;orthogonalLoop=1;jettySize=auto;html=1;exitX=1;exitY=0.5;exitDx=0;exitDy=0;fontSize=17;entryX=0;entryY=0.5;entryDx=0;entryDy=0;" edge="1" parent="1" source="LrA5sY278lgj9yP4FrpZ-92" target="LrA5sY278lgj9yP4FrpZ-171">
          <mxGeometry relative="1" as="geometry">
            <mxPoint x="1240" y="492" as="targetPoint" />
            <Array as="points">
              <mxPoint x="1240" y="710" />
              <mxPoint x="1240" y="600" />
            </Array>
          </mxGeometry>
        </mxCell>
        <mxCell id="LrA5sY278lgj9yP4FrpZ-166" value="recommendation list" style="shape=table;startSize=30;container=1;collapsible=0;childLayout=tableLayout;fontStyle=1;align=center;fontSize=23;" vertex="1" parent="1">
          <mxGeometry x="1170" y="40" width="430" height="110" as="geometry" />
        </mxCell>
        <mxCell id="LrA5sY278lgj9yP4FrpZ-167" value="" style="shape=partialRectangle;html=1;whiteSpace=wrap;collapsible=0;dropTarget=0;pointerEvents=0;fillColor=none;top=0;left=0;bottom=0;right=0;points=[[0,0.5],[1,0.5]];portConstraint=eastwest;" vertex="1" parent="LrA5sY278lgj9yP4FrpZ-166">
          <mxGeometry y="30" width="430" height="80" as="geometry" />
        </mxCell>
        <mxCell id="LrA5sY278lgj9yP4FrpZ-168" value="&lt;span style=&quot;font-size: 22px&quot;&gt;substitute id&lt;/span&gt;" style="shape=partialRectangle;html=1;whiteSpace=wrap;connectable=0;fillColor=none;top=0;left=0;bottom=0;right=0;overflow=hidden;" vertex="1" parent="LrA5sY278lgj9yP4FrpZ-167">
          <mxGeometry width="206" height="80" as="geometry" />
        </mxCell>
        <mxCell id="LrA5sY278lgj9yP4FrpZ-170" value="&lt;font style=&quot;font-size: 22px&quot;&gt;positive costs saved&lt;/font&gt;" style="shape=partialRectangle;html=1;whiteSpace=wrap;connectable=0;fillColor=none;top=0;left=0;bottom=0;right=0;overflow=hidden;" vertex="1" parent="LrA5sY278lgj9yP4FrpZ-167">
          <mxGeometry x="206" width="224" height="80" as="geometry" />
        </mxCell>
        <mxCell id="LrA5sY278lgj9yP4FrpZ-172" style="edgeStyle=orthogonalEdgeStyle;rounded=0;orthogonalLoop=1;jettySize=auto;html=1;exitX=0.5;exitY=0;exitDx=0;exitDy=0;fontSize=17;entryX=0.838;entryY=1.023;entryDx=0;entryDy=0;entryPerimeter=0;" edge="1" parent="1" source="LrA5sY278lgj9yP4FrpZ-171" target="LrA5sY278lgj9yP4FrpZ-167">
          <mxGeometry relative="1" as="geometry">
            <mxPoint x="1520" y="160" as="targetPoint" />
            <Array as="points">
              <mxPoint x="1520" y="340" />
              <mxPoint x="1530" y="340" />
            </Array>
          </mxGeometry>
        </mxCell>
        <mxCell id="LrA5sY278lgj9yP4FrpZ-171" value="&lt;span style=&quot;color: rgb(0 , 0 , 0) ; font-family: &amp;#34;helvetica&amp;#34; ; font-size: 22px ; font-style: normal ; font-weight: 400 ; letter-spacing: normal ; text-align: center ; text-indent: 0px ; text-transform: none ; word-spacing: 0px ; background-color: rgb(248 , 249 , 250) ; display: inline ; float: none&quot;&gt;costs saved = money user would spend on user device - money user would spend on solar substitute&lt;/span&gt;" style="whiteSpace=wrap;html=1;" vertex="1" parent="1">
          <mxGeometry x="1370" y="530" width="300" height="140" as="geometry" />
        </mxCell>
        <mxCell id="LrA5sY278lgj9yP4FrpZ-173" value="" style="shape=cylinder3;whiteSpace=wrap;html=1;boundedLbl=1;backgroundOutline=1;size=15;fontSize=23;" vertex="1" parent="1">
          <mxGeometry x="130" y="-250" width="60" height="80" as="geometry" />
        </mxCell>
        <mxCell id="LrA5sY278lgj9yP4FrpZ-174" value="" style="shape=cylinder3;whiteSpace=wrap;html=1;boundedLbl=1;backgroundOutline=1;size=15;fontSize=23;" vertex="1" parent="1">
          <mxGeometry x="1215" y="-185" width="60" height="80" as="geometry" />
        </mxCell>
        <mxCell id="LrA5sY278lgj9yP4FrpZ-175" value="" style="shape=cylinder3;whiteSpace=wrap;html=1;boundedLbl=1;backgroundOutline=1;size=15;fontSize=23;" vertex="1" parent="1">
          <mxGeometry x="1180" y="-438" width="60" height="80" as="geometry" />
        </mxCell>
        <mxCell id="LrA5sY278lgj9yP4FrpZ-176" value="?" style="shape=cylinder3;whiteSpace=wrap;html=1;boundedLbl=1;backgroundOutline=1;size=15;fontSize=23;" vertex="1" parent="1">
          <mxGeometry x="1600" y="30" width="60" height="80" as="geometry" />
        </mxCell>
        <mxCell id="LrA5sY278lgj9yP4FrpZ-178" value="?" style="shape=cylinder3;whiteSpace=wrap;html=1;boundedLbl=1;backgroundOutline=1;size=15;fontSize=23;" vertex="1" parent="1">
          <mxGeometry x="925" y="10" width="60" height="80" as="geometry" />
        </mxCell>
      </root>
    </mxGraphModel>
  </diagram>
</mxfile>
